<?xml version="1.0" encoding="iso-8859-1"?>
<!-- Generator: Adobe Illustrator 19.0.0, SVG Export Plug-In . SVG Version: 6.00 Build 0)  -->
<svg version="1.1" id="Capa_1" xmlns="http://www.w3.org/2000/svg" xmlns:xlink="http://www.w3.org/1999/xlink" x="0px" y="0px"
	 viewBox="0 0 512 512" style="enable-background:new 0 0 512 512;" xml:space="preserve">
<path style="fill:#333333;" d="M512,256c0,141.385-114.615,256-256,256C129.306,512,24.116,419.976,3.626,299.112
	c-1.714-10.031-2.832-20.261-3.323-30.657C0.104,264.328,0,260.18,0,256v-0.616c0.031-13.019,1.034-25.809,2.936-38.306
	C21.692,94.166,127.843,0,256,0c127.394,0,233.064,93.059,252.709,214.915c0.867,5.277,1.557,10.606,2.079,15.987
	C511.592,239.156,512,247.526,512,256z"/>
<g>
	<path style="fill:#F2F2F2;" d="M46.059,302.331c-16.52-0.564-26.718-3.95-33.019-7.858c-2.873-1.776-6.572,0.282-6.572,3.657v0.982
		H3.626c-1.714-10.031-2.832-20.261-3.323-30.657h6.165c0,8.944,8.944,18.725,27.669,21.473c18.725,2.738,40.427-0.24,41.859-9.54
		c1.432-9.3-11.807-12.643-28.975-13.364c-11.933-0.502-34.513-2.079-47.02-11.64c0.031-13.019,1.034-25.809,2.936-38.306
		c11.483-7.408,28.641-8.704,38.839-8.255c11.985,0.533,23.897,3.929,34.074,8.85c2.33,1.128,5.036-0.543,5.036-3.135v-1.055h11.337
		v28.139H80.886c-1.191-16.927-28.62-20.511-37.449-20.511c-8.819,0-31.232,0.982-30.532,10.731
		c0.658,9.132,13.72,9.07,22.779,10.261c9.07,1.191,51.284,2.508,59.998,19.08C107.227,283.188,88.043,303.762,46.059,302.331z"/>
	<path style="fill:#F2F2F2;" d="M178.803,208.823c-36.498,0-66.079,21.138-66.079,47.219c0,26.081,29.581,47.219,66.079,47.219
		s66.079-21.138,66.079-47.219C244.882,229.961,215.301,208.823,178.803,208.823z M178.803,292.164
		c-20.752,0-37.564-16.175-37.564-36.122c0-19.947,16.812-36.122,37.564-36.122s37.564,16.175,37.564,36.122
		C216.367,275.989,199.555,292.164,178.803,292.164z"/>
	<path style="fill:#F2F2F2;" d="M338.254,214.91v9.541h10.773c3.93,0,7.117,3.186,7.117,7.117v33.672l-59.441-50.09h-40.978v9.541
		h10.472c3.306,0,5.986,2.68,5.986,5.986v53.073c0,2.291-1.858,4.149-4.149,4.149h-12.309v9.541h49.851V287.9h-11.593
		c-2.291,0-4.149-1.858-4.149-4.149v-42.188l66.309,55.878h17.65v-65.872c0-3.93,3.186-7.117,7.117-7.117h9.342v-9.541
		L338.254,214.91L338.254,214.91z"/>
	<path style="fill:#F2F2F2;" d="M485.198,287.901h11.672v9.54h-59.632v-9.54h11.442c2.581,0,4.66-2.09,4.66-4.66v-17.596
		l-33.855-36.854c-2.539-2.769-6.113-4.336-9.874-4.336h-9.582v-9.54h59.632v9.54h-2.675c-3.093,0-4.712,3.678-2.623,5.956
		l18.422,20.041l18.411-20.041c2.09-2.278,0.481-5.956-2.612-5.956h-4.587v-9.54h24.712c0.867,5.277,1.557,10.606,2.079,15.987
		l-30.25,32.925v19.414C480.538,285.811,482.617,287.901,485.198,287.901z"/>
</g>
<g>
</g>
<g>
</g>
<g>
</g>
<g>
</g>
<g>
</g>
<g>
</g>
<g>
</g>
<g>
</g>
<g>
</g>
<g>
</g>
<g>
</g>
<g>
</g>
<g>
</g>
<g>
</g>
<g>
</g>
</svg>
